<?xml version="1.0" encoding="UTF-8" standalone="no"?>
<svg
   width="31.085598"
   height="48"
   viewBox="0 0 31.085598 48"
   fill="none"
   version="1.1"
   id="svg4"
   xmlns="http://www.w3.org/2000/svg"
   xmlns:svg="http://www.w3.org/2000/svg">
  <defs
     id="defs8" />
  <path
     fill-rule="evenodd"
     clip-rule="evenodd"
     d="m 23.395799,23.6529 c -0.0434,0.2782 -0.1492,0.543 -0.3095,0.7746 -0.1603,0.2315 -0.3709,0.4237 -0.616,0.5623 -0.4937,0.3188 -0.9256,0.4782 -1.3626,0.6376 -0.9307,0.3214 -1.9103,0.6428 -2.9464,1.0156 -1.0926,0.3727 -2.0722,0.7455 -2.9463,1.0155 -1.090099,0.3728 -2.126199,0.6941 -3.110899,1.0669 -0.7408,0.3171 -1.4367,0.7302 -2.0696,1.229 -0.5886996,0.5333 -1.1023996,1.1439 -1.5271996,1.8151 -0.437,0.7455 -0.7121,1.7071 -0.7121,2.828 0,2.2445 0.545,3.9516 1.6377,5.0186 1.0900996,1.1235 3.1108996,1.6557 6.1059986,1.6557 3.0544,0 5.1266,-0.5862 6.2218,-1.7611 1.0875,-1.175 1.6325,-2.8281 1.6325,-4.962 V 23.6529 Z M 15.541499,0 c 5.3476,0 9.2735,1.015531 11.7802,3.0980209 2.509299,2.0310598 3.763899,4.6431698 3.763899,7.7385801 V 37.2148 c 0,1.0669 -0.216,2.2419 -0.5965,3.5222 -0.3856,1.2855 -1.146599,2.4579 -2.347299,3.5222 -1.1441,1.0721 -2.7252,1.9797 -4.7434,2.6738 -2.0182,0.6942 -4.6355,1.067 -7.8543,1.067 -3.213699,0 -5.8360986,-0.3728 -7.8517986,-1.067 -2.0156,-0.6941 -3.5993,-1.6017 -4.7434,-2.6738 -1.0643,-0.9591 -1.8706,-2.1702 -2.34470005,-3.5222 C 0.21850035,39.4592 3.5015869e-7,38.2843 3.5015869e-7,37.2174 V 33.001 c 0,-2.2445 0.59899999984131,-4.327 1.79970004984131,-6.1447 1.2006,-1.8665 2.8897,-3.1468 5.0725,-3.949 1.0901,-0.3728 2.3447,-0.7455 3.7612996,-1.226299 1.4192,-0.4834 2.7253,-0.964099 4.0364,-1.3883 1.311199,-0.4294 2.455299,-0.8587 3.434899,-1.2341 0.5911,-0.2365 1.1915,-0.4492 1.7996,-0.6376 l 0.9822,-0.4808 c 0.3856,-0.2134 0.7635,-0.5347 1.1466,-0.9615 0.3805,-0.4242 0.707,-0.905 0.9821,-1.4398 0.2907,-0.579 0.4404,-1.2186 0.4371,-1.8665 v -1.7097 c 0.004,-0.6266 -0.1275,-1.2467 -0.3857,-1.8177 -0.2159,-0.6427004 -0.653,-1.2288803 -1.252,-1.7610703 -0.5991,-0.53476 -1.4192,-0.96154 -2.3987,-1.28548 -0.9822,-0.31623 -2.2882,-0.4782 -3.7639,-0.4782 -3.054399,0 -5.072599,0.59132 -6.1626986,1.8151 -0.9255,1.0695299 -1.4705,2.4038503 -1.5785,3.8975503 0,0.3214 -0.2726,0.5348 -0.6016,0.5348 l -6.65110005,0.108 c -0.158,7e-4 -0.3099,-0.0611 -0.4226,-0.1718 -0.1126,-0.1108 -0.177,-0.2616 -0.179,-0.4195 v -1.5426 c 0,-1.4989003 0.2751,-2.8872203 0.8741,-4.2215503 0.60160005,-1.33691 1.52970005,-2.45528 2.78180005,-3.4193898 1.2546,-0.9589699 2.8923,-1.7585499 4.854,-2.29330793 C 10.4767,0.26481 12.8214,0 15.546699,0 Z"
     fill="#0A3871"
     id="path2"
     style="fill:#ffffff;fill-opacity:1" />
</svg>
